<svg width="243" height="40" viewBox="0 0 243 40" fill="none" xmlns="http://www.w3.org/2000/svg">
<path d="M197.719 7.11853V25.4098C197.72 25.4962 197.691 25.5803 197.639 25.649C197.586 25.7176 197.513 25.767 197.429 25.7892C197.346 25.8115 197.257 25.8055 197.177 25.7721C197.097 25.7387 197.031 25.6799 196.988 25.6048L186.289 6.92353C186.255 6.86374 186.206 6.81415 186.146 6.77988C186.086 6.7456 186.018 6.72788 185.949 6.72853H180.173C180.07 6.72853 179.971 6.76962 179.897 6.84276C179.824 6.9159 179.783 7.0151 179.783 7.11853V32.9385C179.783 33.042 179.824 33.1412 179.897 33.2143C179.971 33.2874 180.07 33.3285 180.173 33.3285H184.119C184.223 33.3285 184.322 33.2874 184.395 33.2143C184.468 33.1412 184.509 33.042 184.509 32.9385V14.7298C184.509 14.6426 184.538 14.5577 184.591 14.4886C184.644 14.4194 184.719 14.37 184.803 14.3481C184.888 14.3262 184.977 14.333 185.057 14.3675C185.137 14.4019 185.204 14.4621 185.246 14.5385L195.693 33.1348C195.728 33.1958 195.778 33.2465 195.839 33.2817C195.899 33.3168 195.968 33.3352 196.038 33.3348L201.868 33.3123C201.972 33.3123 202.071 33.2712 202.144 33.198C202.217 33.1249 202.258 33.0257 202.258 32.9223V7.11853C202.258 7.0151 202.217 6.9159 202.144 6.84276C202.071 6.76962 201.972 6.72853 201.868 6.72853H198.108C198.057 6.72853 198.006 6.73862 197.959 6.75822C197.912 6.77782 197.869 6.80655 197.832 6.84276C197.796 6.87898 197.768 6.92197 197.748 6.96929C197.728 7.0166 197.718 7.06732 197.718 7.11853H197.719Z" fill="#35008B"/>
<path d="M148.587 6.71484H143.728C143.649 6.71472 143.572 6.73857 143.507 6.78322C143.442 6.82786 143.393 6.89121 143.364 6.96485L133.202 32.7986C133.178 32.858 133.169 32.9223 133.176 32.9858C133.183 33.0494 133.206 33.1103 133.242 33.1632C133.277 33.2161 133.326 33.2594 133.382 33.2894C133.439 33.3193 133.502 33.3349 133.566 33.3348H137.357C137.436 33.335 137.513 33.3111 137.578 33.2665C137.643 33.2218 137.693 33.1585 137.721 33.0848L145.872 13.0223C145.901 12.9493 145.952 12.8866 146.017 12.8425C146.082 12.7983 146.159 12.7747 146.238 12.7747C146.316 12.7747 146.393 12.7983 146.458 12.8425C146.524 12.8866 146.574 12.9493 146.603 13.0223L154.427 33.0748C154.456 33.1481 154.506 33.211 154.571 33.2556C154.635 33.3002 154.712 33.3243 154.791 33.3248H158.456C158.519 33.3246 158.582 33.309 158.638 33.2795C158.694 33.2499 158.742 33.2073 158.778 33.1551C158.814 33.1029 158.837 33.0428 158.845 32.9799C158.853 32.9169 158.845 32.853 158.823 32.7936L148.954 6.96859C148.925 6.89445 148.875 6.83067 148.81 6.78544C148.744 6.74022 148.667 6.71563 148.587 6.71484Z" fill="#35008B"/>
<path d="M241.921 6.75391H223.643C223.54 6.75391 223.441 6.795 223.367 6.86813C223.294 6.94127 223.253 7.04047 223.253 7.14391V32.9414C223.253 33.0448 223.294 33.144 223.367 33.2172C223.441 33.2903 223.54 33.3314 223.643 33.3314H241.884C241.988 33.3314 242.087 33.2903 242.16 33.2172C242.233 33.144 242.274 33.0448 242.274 32.9414V29.4176C242.274 29.3142 242.233 29.215 242.16 29.1419C242.087 29.0687 241.988 29.0276 241.884 29.0276H228.181C228.077 29.0276 227.978 28.9866 227.905 28.9134C227.832 28.8403 227.791 28.7411 227.791 28.6376L227.799 11.4502C227.799 11.3467 227.841 11.2475 227.914 11.1744C227.987 11.1012 228.086 11.0602 228.189 11.0602H241.912C242.015 11.0602 242.115 11.0191 242.188 10.9459C242.261 10.8728 242.302 10.7736 242.302 10.6702L242.311 7.15516C242.311 7.05126 242.27 6.95154 242.197 6.8776C242.124 6.80367 242.025 6.76147 241.921 6.76016V6.75391ZM240.091 21.7539V18.3339C240.091 18.2305 240.05 18.1313 239.976 18.0581C239.903 17.985 239.804 17.9439 239.701 17.9439H230.419C230.316 17.9439 230.217 17.985 230.144 18.0581C230.071 18.1313 230.029 18.2305 230.029 18.3339V21.7527C230.029 21.8561 230.071 21.9553 230.144 22.0284C230.217 22.1016 230.316 22.1427 230.419 22.1427H239.701C239.804 22.1427 239.903 22.1016 239.976 22.0284C240.05 21.9553 240.091 21.8561 240.091 21.7527" fill="#35008B"/>
<path d="M61.7184 33.334C62.64 33.3224 63.5585 33.2219 64.4609 33.034C66.0393 32.7964 67.4869 32.0198 68.5578 30.8361C69.6287 29.6524 70.2569 28.1345 70.3358 26.5402C70.5378 25.2072 70.3218 23.8443 69.7174 22.6391C69.113 21.4339 68.15 20.4456 66.9608 19.8102C66.8358 19.7377 66.7108 19.674 66.5796 19.6102C67.1882 19.1548 67.7214 18.6064 68.1596 17.9852C69.0589 16.7133 69.5122 15.1796 69.4489 13.6232C69.3856 12.0667 68.8093 10.5749 67.8096 9.38024C67.3857 8.85505 66.8791 8.40245 66.3096 8.04024C64.7781 7.12255 63.0123 6.67122 61.2284 6.74149H49.9484C49.8449 6.74149 49.7457 6.78258 49.6726 6.85572C49.5994 6.92886 49.5583 7.02806 49.5583 7.13149V32.934C49.5585 32.9856 49.5689 33.0366 49.5888 33.0842C49.6088 33.1318 49.638 33.1749 49.6747 33.2112C49.7114 33.2474 49.7549 33.276 49.8028 33.2954C49.8506 33.3148 49.9018 33.3245 49.9534 33.324H61.7034L61.7184 33.334ZM65.0696 14.4077C65.089 15.0787 64.8974 15.7389 64.5218 16.2953C64.1462 16.8517 63.6055 17.2762 62.9758 17.509C62.4667 17.7099 61.9286 17.828 61.3821 17.859H56.6408C56.5896 17.859 56.5389 17.8691 56.4916 17.8887C56.4443 17.9083 56.4013 17.937 56.3651 17.9732C56.3289 18.0094 56.3001 18.0524 56.2805 18.0997C56.2609 18.1471 56.2509 18.1978 56.2509 18.249V21.5277C56.251 21.5793 56.2614 21.6304 56.2814 21.6779C56.3013 21.7255 56.3305 21.7687 56.3672 21.8049C56.4039 21.8412 56.4474 21.8698 56.4953 21.8892C56.5431 21.9085 56.5943 21.9182 56.6459 21.9177L61.8821 21.909C62.8071 21.887 63.7166 22.1487 64.4883 22.659C64.5098 22.6714 64.5295 22.6865 64.5471 22.704C65.0699 23.1532 65.4527 23.7433 65.6497 24.4039C65.8467 25.0645 65.8496 25.7678 65.6583 26.43C65.4669 27.0923 65.0892 27.6856 64.5702 28.1392C64.0512 28.5929 63.4127 28.8879 62.7308 28.989C62.3268 29.0532 61.9187 29.0883 61.5096 29.094L54.4071 29.0752C54.3037 29.0752 54.2045 29.0341 54.1313 28.961C54.0582 28.8879 54.0171 28.7887 54.0171 28.6852V11.369C54.0171 11.2656 54.0582 11.1664 54.1313 11.0932C54.2045 11.0201 54.3037 10.979 54.4071 10.979L61.0683 10.9602C61.8088 10.9354 62.5458 11.0701 63.2296 11.3552C63.8078 11.6028 64.2951 12.0235 64.6244 12.5594C64.9537 13.0953 65.1088 13.7201 65.0684 14.3477V14.4065L65.0696 14.4077Z" fill="#35008B"/>
<path d="M106.606 23.6351C106.576 23.5883 106.558 23.5358 106.55 23.4811C106.543 23.4264 106.547 23.3708 106.563 23.3179C106.579 23.2651 106.606 23.2162 106.642 23.1745C106.678 23.1329 106.723 23.0994 106.773 23.0764C107.918 22.5552 108.929 21.7794 109.728 20.8083C110.528 19.8371 111.095 18.6963 111.387 17.4726C111.726 16.1844 111.759 14.8346 111.483 13.5313C111.208 12.228 110.631 11.0072 109.799 9.96668C108.967 8.92614 107.903 8.09468 106.693 7.53876C105.482 6.98285 104.158 6.71791 102.827 6.76513H91.8419C91.7385 6.76513 91.6393 6.80622 91.5661 6.87936C91.493 6.9525 91.4519 7.0517 91.4519 7.15513V32.9389C91.4519 33.0423 91.493 33.1415 91.5661 33.2146C91.6393 33.2878 91.7385 33.3289 91.8419 33.3289H95.5657C95.6691 33.3289 95.7683 33.2878 95.8414 33.2146C95.9146 33.1415 95.9556 33.0423 95.9556 32.9389L95.9369 11.4014C95.9369 11.2979 95.978 11.1987 96.0511 11.1256C96.1243 11.0525 96.2235 11.0114 96.3269 11.0114L103.129 10.9976C103.995 11.0122 104.835 11.2997 105.528 11.819C106.221 12.3384 106.732 13.0631 106.989 13.8901C107.174 14.4803 107.24 15.1013 107.183 15.717C107.126 16.3328 106.948 16.9312 106.658 17.4776C106.403 17.9701 106.051 18.406 105.623 18.7595C105.195 19.113 104.701 19.3768 104.169 19.5351C103.478 19.7118 102.771 19.8169 102.058 19.8489H98.5581C98.5069 19.8489 98.4562 19.859 98.4089 19.8786C98.3616 19.8982 98.3186 19.9269 98.2824 19.9631C98.2462 19.9993 98.2174 20.0423 98.1979 20.0896C98.1783 20.1369 98.1682 20.1877 98.1682 20.2389V23.5314C98.1682 23.6348 98.2092 23.734 98.2824 23.8071C98.3555 23.8803 98.4547 23.9214 98.5581 23.9214H101.483C101.55 23.9219 101.616 23.9392 101.675 23.9718C101.734 24.0043 101.783 24.051 101.819 24.1076L107.319 33.1264C107.355 33.1836 107.404 33.2309 107.463 33.2635C107.522 33.2961 107.588 33.313 107.656 33.3126H111.781C111.85 33.3126 111.918 33.2942 111.978 33.2591C112.039 33.2241 112.088 33.1738 112.122 33.1132C112.157 33.0527 112.174 32.9842 112.173 32.9147C112.172 32.8452 112.153 32.7772 112.117 32.7176L106.596 23.6351H106.606Z" fill="#35008B"/>
<path d="M12.9385 32.0933C11.4684 31.8952 10.1208 31.1687 9.14721 30.0496C7.76855 28.6517 6.61372 27.0495 5.72346 25.2996C5.65971 25.1746 5.59846 25.0496 5.53721 24.9246C5.1159 24.0578 4.74039 23.1695 4.41221 22.2633C4.11721 21.4458 3.84971 20.5921 3.61721 19.7246C3.41721 18.9746 3.24221 18.2083 3.09971 17.4408C2.98221 16.8046 2.87721 16.1646 2.79596 15.5383C2.73721 15.0621 2.68721 14.5896 2.65096 14.1446C2.62846 13.8446 2.61471 13.5683 2.60596 13.2958C2.60596 13.1283 2.60596 12.9646 2.60596 12.7958C2.60538 12.0834 2.6677 11.3723 2.79221 10.6708C2.87303 10.1729 3.03385 9.69122 3.26846 9.24459C3.44297 8.90907 3.70135 8.62443 4.01846 8.41835C4.31571 8.2413 4.65381 8.14439 4.99971 8.1371C5.38038 8.13172 5.75968 8.18398 6.12471 8.2921C6.54902 8.41557 6.96351 8.57058 7.36471 8.75585C7.85471 8.97835 8.33221 9.22334 8.69471 9.41834C9.03096 9.59584 9.36221 9.77709 9.69471 9.96334L10.0847 10.1771C10.5297 10.4271 11.011 10.6771 11.506 10.9271C12.0372 11.1946 12.4872 11.3946 12.9222 11.5671C13.3642 11.7456 13.8198 11.8882 14.2847 11.9933C15.2335 12.2021 16.096 12.3433 16.8597 12.4658C19.7972 12.9421 21.4185 13.2021 21.0335 16.3621C20.7278 18.162 20.0703 19.884 19.0985 21.4296C17.8184 23.6582 16.8295 26.0418 16.156 28.5221C15.566 30.7333 14.576 31.9283 13.2222 32.0683C13.13 32.0776 13.0374 32.0822 12.9447 32.0821L12.9385 32.0933ZM2.92596 13.2896C2.92596 13.5571 2.94471 13.8258 2.96721 14.1208C2.99846 14.5608 3.04846 15.0246 3.10846 15.4958C3.18971 16.1208 3.28971 16.7533 3.40846 17.3808C3.55346 18.1433 3.72596 18.9021 3.92221 19.6421C4.14971 20.5008 4.42221 21.3446 4.70721 22.1533C5.03216 23.0478 5.40521 23.9241 5.82471 24.7783C5.88346 24.9033 5.94971 25.0283 6.01096 25.1533C7.74596 28.5358 10.8385 31.9971 13.181 31.7508C14.3885 31.6258 15.2835 30.5008 15.8372 28.4408C16.5166 25.9365 17.5148 23.5297 18.8072 21.2796C19.7609 19.77 20.4058 18.0863 20.7047 16.3258C21.0547 13.4783 19.7197 13.2608 16.8035 12.7933C16.036 12.6683 15.1685 12.5296 14.2147 12.3208C13.7325 12.2114 13.2601 12.0626 12.8022 11.8758C12.3622 11.7033 11.9035 11.4946 11.3622 11.2221C10.8622 10.9721 10.381 10.7133 9.93221 10.4721L9.54221 10.2583C9.21096 10.0771 8.87971 9.8946 8.54221 9.71835C8.20471 9.5421 7.71596 9.2821 7.23471 9.0646C6.85019 8.88561 6.45232 8.73682 6.04471 8.61959C5.71192 8.51967 5.36591 8.47078 5.01846 8.4746C4.72773 8.47926 4.44313 8.55891 4.19221 8.70584C3.92163 8.88116 3.70113 9.12363 3.55221 9.40959C3.3353 9.82652 3.18674 10.2756 3.11221 10.7396C2.99185 11.4201 2.9312 12.1098 2.93096 12.8008V13.2871L2.92596 13.2896Z" fill="#35008B"/>
<path d="M11.4221 34.8637C11.3633 34.8637 11.2971 34.8637 11.2408 34.8637C9.45581 34.7549 7.86581 33.0699 6.85456 31.6762C5.51042 29.7663 4.46939 27.6602 3.76831 25.4324C2.34141 20.6715 1.89993 15.6697 2.47081 10.7325C2.97081 7.52245 3.81956 5.78745 5.12331 5.2787C6.87331 4.59245 9.11081 6.34995 11.4758 8.2162C12.9796 9.52715 14.6519 10.6311 16.4483 11.4987C17.5196 11.93 18.5008 12.2612 19.3683 12.5562C22.6183 13.66 24.5908 14.3225 23.5096 17.9687C22.796 20.0214 21.6848 21.9133 20.2396 23.5362C18.3008 25.8937 16.6722 28.4898 15.3933 31.2612C14.3033 33.6499 12.9633 34.8624 11.4158 34.8624L11.4221 34.8637ZM2.89331 10.7962C2.33331 15.6667 2.77051 20.6001 4.17831 25.2962C5.54081 29.5962 8.48831 34.2549 11.2621 34.4212C12.6921 34.5124 13.9508 33.3812 15.0033 31.0787C16.2925 28.2777 17.9359 25.6537 19.8933 23.2712C21.3082 21.6924 22.3947 19.8478 23.0896 17.8449C24.0521 14.5949 22.5396 14.085 19.2258 12.9637C18.3508 12.6687 17.3646 12.3387 16.2833 11.8962C14.448 11.0138 12.7391 9.88964 11.2021 8.5537C8.93581 6.7687 6.79706 5.07996 5.27206 5.67871C4.14706 6.11871 3.36456 7.79495 2.89706 10.7962H2.89331Z" fill="#35008B"/>
<path d="M9.91815 37.4355C9.7169 37.4353 9.51609 37.4169 9.31815 37.3805C7.69315 37.0943 6.07565 35.623 4.65065 33.1205C3.35559 30.7532 2.43509 28.1996 1.9219 25.5505C0.903984 19.8989 1.04603 14.0993 2.3394 8.50427C3.3394 4.86302 4.55065 2.96927 6.13565 2.54677C8.2744 1.97427 10.6219 4.29677 13.1056 6.75677C14.6528 8.44725 16.4183 9.924 18.3556 11.148C19.5231 11.773 20.6056 12.288 21.5619 12.7368C25.1869 14.4393 27.3794 15.4705 25.6394 19.5755C24.5525 21.8439 23.0293 23.876 21.1569 25.5555C18.6384 28.0038 16.4439 30.7646 14.6269 33.7705C13.1607 36.2093 11.5757 37.4418 9.9144 37.4418L9.91815 37.4355ZM2.9669 8.67302C1.6975 14.171 1.55844 19.8696 2.55815 25.423C3.058 28.0036 3.95401 30.4913 5.2144 32.798C6.13565 34.423 7.6169 36.423 9.42815 36.7355C11.0219 37.013 12.5844 35.9005 14.0694 33.4255C15.9117 30.3757 18.1383 27.5753 20.6944 25.093C22.513 23.473 23.9916 21.5079 25.0444 19.3118C26.5444 15.783 25.0031 15.0618 21.2944 13.3118C20.3319 12.858 19.2369 12.3443 18.0569 11.7043C16.0612 10.4545 14.2435 8.9408 12.6531 7.20427C10.3044 4.88052 8.0844 2.69177 6.3044 3.16427C4.98315 3.51802 3.88815 5.31677 2.9669 8.66427V8.67302Z" fill="#35008B"/>
<path d="M8.57954 40C8.24222 40.0014 7.90613 39.9594 7.57954 39.875C5.74579 39.3963 4.03829 37.575 2.64829 34.6C1.39373 31.7983 0.580349 28.8193 0.237043 25.7688C-0.410669 19.2737 0.272403 12.7148 2.24454 6.49253C3.72329 2.43253 5.26954 0.388786 7.12579 0.048786C9.63329 -0.409964 12.0983 2.44128 14.6958 5.46128C16.29 7.5107 18.1516 9.33736 20.2308 10.8925C21.4933 11.71 22.6733 12.3825 23.7133 12.9763C27.6958 15.2513 30.102 16.6225 27.737 21.1638C26.2992 23.6378 24.3878 25.8041 22.112 27.5388C19.0439 30.0772 16.3133 32.998 13.987 36.23C12.1945 38.7375 10.382 40 8.57454 40H8.57954ZM3.05704 6.78253C1.12798 12.8795 0.459011 19.3052 1.09079 25.6688C1.42387 28.6269 2.21279 31.5157 3.42954 34.2325C4.71079 36.9663 6.22329 38.625 7.79829 39.0325C9.54829 39.4825 11.3945 38.3738 13.2795 35.7313C15.6444 32.4423 18.4221 29.4709 21.5445 26.89C23.7402 25.227 25.5845 23.1452 26.9708 20.765C28.9558 16.96 27.2933 16.015 23.2883 13.7263C22.2395 13.1263 21.0495 12.45 19.7645 11.615C17.6141 10.0163 15.6896 8.13428 14.0433 6.02003C11.6083 3.20003 9.30579 0.525036 7.28454 0.897536C5.78454 1.17504 4.40079 3.09504 3.06204 6.77253L3.05704 6.78253Z" fill="#35008B"/>
</svg>
